<svg id="Capa_1" enable-background="new 0 0 512 512" height="512" viewBox="0 0 512 512" width="512" xmlns="http://www.w3.org/2000/svg"><g><path d="m482.806 204.652-200.482-74.81c-8.586-3.193-17.736-3.312-26.323-1.23-9.932 2.408-19.094 7.853-25.488 16.377l-76.509 102.012c-4.98 6.621-3.633 16.025 3.003 20.991l98.993-3.354 256-8.643v-9.214c0-18.662-11.733-35.596-29.194-42.129z" fill="#5f55af"/><path d="m512 246.781c0-18.662-11.733-35.596-29.194-42.129l-200.482-74.81c-8.586-3.193-17.736-3.312-26.323-1.23v136.025l256-8.643v-9.213z" fill="#453d83"/><path d="m497 240.995h-241-241v105h241 256v-90c0-8.401-6.599-15-15-15z" fill="#edf5ff"/><path d="m512 255.995c0-8.401-6.599-15-15-15h-241v105h256z" fill="#d5e8fe"/><path d="m497 330.995h-241-226v-225c0-8.401-6.599-15-15-15s-15 6.599-15 15v300c0 8.401 6.599 15 15 15s15-6.599 15-15v-45h226 226v45c0 8.401 6.599 15 15 15s15-6.599 15-15v-60c0-8.401-6.599-15-15-15z" fill="#5f55af"/><path d="m482 405.995c0 8.401 6.599 15 15 15s15-6.599 15-15v-60c0-8.401-6.599-15-15-15h-241v30h226z" fill="#453d83"/><path d="m205 150.995c-24.853 0-45-20.147-45-45 0-24.853 20.147-45 45-45 24.853 0 45 20.147 45 45 0 24.853-20.147 45-45 45z" fill="#fcc"/><path d="m106 240.995c-24.853 0-46-20.147-46-45 0-24.853 21.147-45 46-45 24.853 0 45 20.147 45 45 0 24.853-20.147 45-45 45z" fill="#fcc"/><path d="m446.463 3.349c-6.416-5.2-15.85-4.233-21.108 2.183l-169.355 208.206-222.646 273.794c-5.215 6.431-4.248 15.879 2.183 21.108 6.431 5.213 15.866 4.248 21.108-2.183l199.355-245.128 192.646-236.871c5.214-6.431 4.248-15.879-2.183-21.109z" fill="#ff6c6c"/><path d="m446.463 3.349c-6.416-5.2-15.85-4.233-21.108 2.183l-169.355 208.206v47.591l192.646-236.871c5.214-6.431 4.248-15.879-2.183-21.109z" fill="#e63950"/></g></svg>